<?xml version="1.0" encoding="UTF-8"?>
<svg width="22px" height="22px" viewBox="0 0 22 22" version="1.1" xmlns="http://www.w3.org/2000/svg" xmlns:xlink="http://www.w3.org/1999/xlink">
    <!-- Generator: Sketch 53.2 (72643) - https://sketchapp.com -->
    <title>Group 4</title>
    <desc>Created with Sketch.</desc>
    <g id="UI" stroke="none" stroke-width="1" fill="none" fill-rule="evenodd">
        <g id="Group-4" transform="translate(-1.000000, -1.000000)" fill="#191919">
            <path d="M19.6862745,4.31189145 C19.2156838,3.89603618 18.7712427,3.89603618 18.3529412,4.31189145 L5.92156863,16.9980514 L5.92156863,6.04288605 C5.92156863,5.78297619 5.8300662,5.56205519 5.64705882,5.38011804 C5.46405145,5.19818089 5.22875959,5.10721356 4.94117647,5.10721356 C4.67973722,5.10721356 4.45751718,5.19818089 4.2745098,5.38011804 C4.09150236,5.56205519 4,5.78297619 4,6.04288605 L4,19.376219 C4,19.6361293 4.09150236,19.8570498 4.2745098,20.038987 C4.45751718,20.2209242 4.67973722,20.3118915 4.94117647,20.3118915 L18.3529412,20.3118915 C18.6143799,20.3118915 18.8366005,20.2209242 19.0196078,20.038987 C19.2026152,19.8570498 19.2941176,19.6361293 19.2941176,19.376219 C19.2941176,19.0903176 19.2026152,18.8564018 19.0196078,18.6744646 C18.8366005,18.4925275 18.6143799,18.4015601 18.3529412,18.4015601 L7.17647059,18.4015601 L19.6862745,5.63742747 C19.8692819,5.48148206 19.9607843,5.26705836 19.9607843,4.99415139 C19.9607843,4.72124692 19.8692819,4.4938286 19.6862745,4.31189145 Z" id="Fill-1" transform="translate(11.980392, 12.155946) scale(-1, 1) rotate(45.000000) translate(-11.980392, -12.155946) "></path>
        </g>
    </g>
</svg>