<?xml version="1.0" encoding="UTF-8"?>
<svg width="43px" height="43px" viewBox="0 0 43 43" version="1.1" xmlns="http://www.w3.org/2000/svg" xmlns:xlink="http://www.w3.org/1999/xlink">
    <!-- Generator: Sketch 53.2 (72643) - https://sketchapp.com -->
    <title>Group 2</title>
    <desc>Created with Sketch.</desc>
    <g id="UI" stroke="none" stroke-width="1" fill="none" fill-rule="evenodd">
        <g id="Group-2" fill="#FFFFFF">
            <path d="M21.5,43 C9.62587788,43 0,33.3741221 0,21.5 C0,9.62587788 9.62587788,0 21.5,0 C33.3741221,0 43,9.62587788 43,21.5 C43,33.3741221 33.3741221,43 21.5,43 Z M29.4611278,21.8933182 C29.4611278,20.9437217 29.2589637,20.0498277 28.854631,19.2116047 C28.4502982,18.373384 27.8981203,17.6406822 27.198081,17.0134814 C26.498044,16.3862806 25.6773213,15.8939052 24.7358874,15.5363418 C23.7944557,15.1787783 22.7926917,15 21.7305651,15 C20.6684361,15 19.6666721,15.1787783 18.7252381,15.5363418 C17.7838065,15.8939052 16.9630838,16.3862806 16.2630456,17.0134814 C15.5630068,17.6406822 15.0108291,18.373384 14.6064963,19.2116047 C14.2021634,20.0498277 14,20.9437217 14,21.8933182 C14,22.5029329 14.0844862,23.0861628 14.2534611,23.6430236 C14.422436,24.1998844 14.6577904,24.7244991 14.9595314,25.2168812 C15.2612723,25.7092634 15.6263733,26.1635381 16.0548456,26.5797189 C16.4833187,26.9958998 16.9570448,27.3563871 17.4760381,27.6611967 L16.3173587,30 C16.3173587,30 16.7699644,29.9794844 17.6751873,29.9384525 C18.5804078,29.8974206 19.6545894,29.7567421 20.8977619,29.5164125 C22.1409369,29.2760832 23.4082285,28.8950786 24.6996809,28.373388 C25.9911311,27.8516972 27.0291038,27.1160652 27.8136317,26.166471 L27.7955262,26.166471 C28.3145196,25.5803015 28.7218649,24.923801 29.0175714,24.1969515 C29.313278,23.470102 29.4611278,22.7022303 29.4611278,21.8933182 Z M18.254527,23.2473617 C17.9286461,23.2473617 17.6540646,23.1359905 17.4307778,22.9132457 C17.2074887,22.6905032 17.0958476,22.4267294 17.0958476,22.121922 C17.0958476,21.8171147 17.2074887,21.5533409 17.4307778,21.3305984 C17.6540646,21.1078536 17.9286461,20.9964823 18.254527,20.9964823 C18.5804055,20.9964823 18.8549871,21.1078536 19.0782738,21.3305984 C19.3015629,21.5533409 19.4132063,21.8171147 19.4132063,22.121922 C19.4132063,22.4267294 19.3015629,22.6905032 19.0782738,22.9132457 C18.8549871,23.1359905 18.5804055,23.2473617 18.254527,23.2473617 Z M21.7305651,23.2473617 C21.4046842,23.2473617 21.1301027,23.1359905 20.9068159,22.9132457 C20.6835268,22.6905032 20.5718857,22.4267294 20.5718857,22.121922 C20.5718857,21.8171147 20.6835268,21.5533409 20.9068159,21.3305984 C21.1301027,21.1078536 21.4046842,20.9964823 21.7305651,20.9964823 C22.0564436,20.9964823 22.3310252,21.1078536 22.5543119,21.3305984 C22.777601,21.5533409 22.8892444,21.8171147 22.8892444,22.121922 C22.8892444,22.4267294 22.777601,22.6905032 22.5543119,22.9132457 C22.3310252,23.1359905 22.0564436,23.2473617 21.7305651,23.2473617 Z M25.2066032,23.2473617 C24.8807223,23.2473617 24.6061408,23.1359905 24.382854,22.9132457 C24.1595649,22.6905032 24.0479238,22.4267294 24.0479238,22.121922 C24.0479238,21.8171147 24.1595649,21.5533409 24.382854,21.3305984 C24.6061408,21.1078536 24.8807223,20.9964823 25.2066032,20.9964823 C25.5324817,20.9964823 25.8070633,21.1078536 26.03035,21.3305984 C26.2536391,21.5533409 26.3652825,21.8171147 26.3652825,22.121922 C26.3652825,22.4267294 26.2536391,22.6905032 26.03035,22.9132457 C25.8070633,23.1359905 25.5324817,23.2473617 25.2066032,23.2473617 Z" id="Combined-Shape"></path>
        </g>
    </g>
</svg>