<?xml version="1.0" encoding="UTF-8"?>
<svg width="30px" height="30px" viewBox="0 0 30 30" version="1.1" xmlns="http://www.w3.org/2000/svg" xmlns:xlink="http://www.w3.org/1999/xlink">
    <!-- Generator: Sketch 53.2 (72643) - https://sketchapp.com -->
    <title>Group 8</title>
    <desc>Created with Sketch.</desc>
    <g id="UI" stroke="none" stroke-width="1" fill="none" fill-rule="evenodd">
        <g id="Group-8">
            <circle id="Oval" fill="#FFFFFF" cx="15" cy="15" r="15"></circle>
            <path d="M17.8444836,18.5589382 L16.2149844,20.3499856 L16.2149844,15.1961598 C16.2149844,14.964665 16.1484742,14.7788595 16.0154538,14.6387433 C15.8824335,14.4986272 15.7106159,14.4285714 15.5000011,14.4285714 C15.2893841,14.4285714 15.1175665,14.4986272 14.9845462,14.6387433 C14.8515258,14.7788595 14.7850156,14.964665 14.7850156,15.1961598 L14.7850156,20.3499856 L13.1555164,18.5589382 C13.0114096,18.4005473 12.8451363,18.3213518 12.6566901,18.3213518 C12.4682439,18.3213518 12.3019706,18.4005473 12.1578638,18.5589382 C12.0248435,18.7173315 11.9583333,18.9000889 11.9583333,19.1072196 C11.9583333,19.3143481 12.0248435,19.4971054 12.1578638,19.6554964 L15.0011726,22.7624124 C15.0344299,22.7989645 15.0704539,22.8355161 15.1092533,22.8720682 C15.1480505,22.9086203 15.1840767,22.9268961 15.2173318,22.9268961 C15.2505869,22.9634482 15.2976973,22.98477 15.3586654,22.990862 C15.4196334,22.996954 15.4667438,23 15.5000011,23 C15.5332562,23 15.5803666,22.996954 15.6413346,22.990862 C15.7023027,22.98477 15.7494131,22.9634482 15.7826682,22.9268961 C15.8159233,22.890344 15.8519495,22.8629303 15.8907467,22.8446543 C15.9295461,22.8263782 15.9655701,22.7989645 15.9988252,22.7624124 L18.8421362,19.6554964 C18.9751565,19.4971054 19.0416667,19.3143481 19.0416667,19.1072196 C19.0416667,18.9000889 18.9751565,18.7173315 18.8421362,18.5589382 C18.6980294,18.4005473 18.5317561,18.3213518 18.3433099,18.3213518 C18.1548637,18.3213518 17.9885904,18.4005473 17.8444836,18.5589382 Z M23.0994461,14.3923969 C22.7163186,13.8287111 22.2237361,13.3765941 21.6216796,13.0360346 C21.019623,12.6954751 20.3683192,12.5251976 19.6677448,12.5251976 C19.6677448,12.5251976 19.6677448,12.5251976 19.6677448,12.5251976 L19.3229316,12.5251976 C19.0602154,11.6914105 18.6661486,10.9574541 18.1407184,10.3233079 C17.6262339,9.68916173 17.0323971,9.18126263 16.3591892,8.79960157 C15.6859813,8.41793825 14.9553147,8.16839332 14.1671683,8.05095776 C13.3899677,7.94526711 12.6073068,8.00398489 11.8191604,8.2271111 C10.9762834,8.46197997 10.2264617,8.83776519 9.5696724,9.35447805 C8.91288391,9.87118866 8.35462222,10.522942 7.89487031,11.309754 C7.47890423,12.1083086 7.20524658,12.9450178 7.0738889,13.8199064 C6.94253124,14.694795 6.98631643,15.5667344 7.20524593,16.4357495 C7.3366036,16.9524623 7.51448117,17.4486165 7.73888374,17.9242278 C7.96328652,18.3998369 8.25062718,18.8255329 8.60091433,19.2013226 C8.74321855,19.3539884 8.90741315,19.4420628 9.09350318,19.4655481 C9.27959321,19.4890357 9.44378823,19.4303202 9.58609098,19.2893993 C9.7174501,19.1367335 9.79681077,18.9605847 9.82417716,18.7609438 C9.85154356,18.5613052 9.79407434,18.3851563 9.65176949,18.2324928 C9.40000116,17.9271612 9.1783388,17.5895419 8.98677549,17.2196235 C8.79521239,16.8497028 8.66659326,16.4592393 8.60091433,16.0482193 C8.42577086,15.3788407 8.38745874,14.6977307 8.48597693,14.0048667 C8.58449512,13.3120005 8.80889454,12.6661207 9.15918169,12.0672025 C9.50946885,11.4682866 9.94184784,10.9545184 10.4563323,10.5258822 C10.9708168,10.097246 11.5400257,9.81247088 12.1639737,9.67154775 C12.820763,9.48365401 13.466594,9.44255247 14.1014898,9.54824312 C14.7473313,9.65393377 15.3411681,9.87705773 15.8830189,10.2176172 C16.4248698,10.5581768 16.8928245,11.0044224 17.2868977,11.5563655 C17.6919166,12.1083086 17.9710471,12.7307031 18.1242977,13.423567 C18.157139,13.5762328 18.2392361,13.7142157 18.3705932,13.8375226 C18.5019502,13.9608295 18.6551986,14.0224807 18.8303428,14.0224807 L19.6677448,14.0224807 C19.6677448,14.0224807 19.6677448,14.0224807 19.6677448,14.0224807 C20.1274965,14.0224807 20.5571391,14.131107 20.9566851,14.3483597 C21.3562312,14.5656145 21.6983038,14.8856199 21.9829114,15.3083825 C22.1908947,15.6372016 22.3414068,15.9894993 22.4344517,16.365289 C22.5274966,16.741081 22.5411787,17.1403538 22.4755002,17.5631164 C22.3988739,17.9741386 22.2620461,18.3440525 22.0650085,18.6728694 C21.8679729,19.0016863 21.6271545,19.2776544 21.3425448,19.5007806 C21.1674028,19.6182139 21.0661486,19.7767488 21.0387822,19.9763874 C21.0114158,20.1760261 21.0688851,20.3697911 21.2111878,20.5576871 C21.2768684,20.6751204 21.3589655,20.7543879 21.4574833,20.7954899 C21.556001,20.8365921 21.6599917,20.8571429 21.7694573,20.8571429 C21.8351358,20.8571429 21.9035486,20.8424636 21.9747021,20.8131052 C22.0458535,20.7837468 22.1197413,20.7514522 22.1963655,20.716222 C22.6451715,20.3756625 23.0228198,19.9529021 23.3293209,19.4479342 C23.635822,18.9429662 23.8383283,18.3851586 23.9368482,17.7744977 C24.0463117,17.1755818 24.0134724,16.5942888 23.8383283,16.0306031 C23.6631863,15.4669174 23.416893,14.9208546 23.0994461,14.3923969 Z" id="Fill-1" fill="#191919"></path>
        </g>
    </g>
</svg>