<?xml version="1.0" encoding="UTF-8"?>
<svg width="20px" height="20px" viewBox="0 0 20 20" version="1.1" xmlns="http://www.w3.org/2000/svg" xmlns:xlink="http://www.w3.org/1999/xlink">
    <!-- Generator: Sketch 53.2 (72643) - https://sketchapp.com -->
    <title>full-screen</title>
    <desc>Created with Sketch.</desc>
    <g id="UI" stroke="none" stroke-width="1" fill="none" fill-rule="evenodd">
        <g id="full-screen" fill="#191919" fill-rule="nonzero">
            <path d="M5,1.25 L5,0 L0.625,0 C0.279804688,0 0,0.279804688 0,0.625 L0,5 L1.25,5 L1.25,2.13125 L7.05625,7.9375 L7.9375,7.05625 L2.13125,1.25 L5,1.25 Z" id="Path"></path>
            <path d="M19.375,0 L15,0 L15,1.25 L17.86875,1.25 L12.0625,7.05625 L12.94375,7.9375 L18.75,2.13125 L18.75,5 L20,5 L20,0.625 C20,0.279804688 19.7201953,0 19.375,0 Z" id="Path"></path>
            <path d="M18.75,17.86875 L12.94375,12.0625 L12.0625,12.94375 L17.86875,18.75 L15,18.75 L15,20 L19.375,20 C19.7201953,20 20,19.7201953 20,19.375 L20,15 L18.75,15 L18.75,17.86875 Z" id="Path"></path>
            <path d="M7.05625,12.05625 L1.25,17.86875 L1.25,15 L0,15 L0,19.375 C0,19.7201953 0.279804688,20 0.625,20 L5,20 L5,18.75 L2.13125,18.75 L7.9375,12.94375 L7.05625,12.05625 Z" id="Path"></path>
        </g>
    </g>
</svg>