<?xml version="1.0" encoding="UTF-8"?>
<svg width="25px" height="121px" viewBox="0 0 25 121" version="1.1" xmlns="http://www.w3.org/2000/svg" xmlns:xlink="http://www.w3.org/1999/xlink">
    <!-- Generator: Sketch 53.2 (72643) - https://sketchapp.com -->
    <title>Group 20</title>
    <desc>Created with Sketch.</desc>
    <g id="UI" stroke="none" stroke-width="1" fill="none" fill-rule="evenodd">
        <g id="Group-20" transform="translate(-4.000000, -0.500000)">
            <g id="Group-2" transform="translate(15.500000, 61.000000) rotate(-90.000000) translate(-15.500000, -61.000000) translate(-45.000000, 46.000000)">
                <g id="Group" transform="translate(0.000000, 4.000000)">
                    <rect id="Rectangle" fill="#F21833" x="0" y="0" width="9" height="9"></rect>
                    <path d="M5.41636364,3.58363636 L7.36363636,3.58363636 L7.36363636,5.41636364 L5.41636364,5.41636364 L5.41636364,7.36363636 L3.58363636,7.36363636 L3.58363636,5.41636364 L1.63636364,5.41636364 L1.63636364,3.58363636 L3.58363636,3.58363636 L3.58363636,1.63636364 L5.41636364,1.63636364 L5.41636364,3.58363636 Z" id="Combined-Shape" fill="#FFFFFF"></path>
                </g>
                <path d="M21.778,8.548 L24.27,8.548 C25.0820041,8.548 25.6769981,8.39166823 26.055,8.079 C26.4330019,7.76633177 26.622,7.31600294 26.622,6.728 C26.622,6.18666396 26.4330019,5.75033499 26.055,5.419 C25.6769981,5.08766501 25.0820041,4.922 24.27,4.922 L21.778,4.922 L21.778,8.548 Z M27.672,13 L26.72,13 C26.6359996,12.8786661 26.563667,12.6500017 26.503,12.314 C26.442333,11.9779983 26.3933335,11.5440027 26.356,11.012 C26.3279999,10.5359976 26.178668,10.1276684 25.908,9.787 C25.637332,9.44633163 25.1753366,9.276 24.522,9.276 L21.778,9.276 L21.778,13 L20.91,13 L20.91,4.18 L24.242,4.18 C25.3526722,4.18 26.178664,4.41566431 26.72,4.887 C27.261336,5.35833569 27.532,5.97199622 27.532,6.728 C27.532,7.40933674 27.3266687,7.92733156 26.916,8.282 C26.5053313,8.63666844 26.0340027,8.84666634 25.502,8.912 C26.0620028,9.01466718 26.4796653,9.23633163 26.755,9.577 C27.0303347,9.91766837 27.1866665,10.3446641 27.224,10.858 C27.2800003,11.5020032 27.3313331,11.9803318 27.378,12.293 C27.4246669,12.6056682 27.5226659,12.8413325 27.672,13 Z M33.804,10.83 L34.532,10.928 C34.3826659,11.6186701 34.0653358,12.1646647 33.58,12.566 C33.0946642,12.9673353 32.483337,13.168 31.746,13.168 C30.8686623,13.168 30.1360029,12.8810029 29.548,12.307 C28.9599971,11.7329971 28.666,10.979338 28.666,10.046 C28.666,9.09399524 28.9553304,8.30766977 29.534,7.687 C30.1126696,7.06633023 30.831329,6.756 31.69,6.756 C32.6326714,6.756 33.3443309,7.05466368 33.825,7.652 C34.3056691,8.24933632 34.546,8.95866256 34.546,9.78 L34.546,10.172 L29.548,10.172 C29.5760001,10.8440034 29.7999979,11.3946645 30.22,11.824 C30.6400021,12.2533355 31.1486637,12.468 31.746,12.468 C32.3060028,12.468 32.7586649,12.3280014 33.104,12.048 C33.4493351,11.7679986 33.6826661,11.3620027 33.804,10.83 Z M29.562,9.57 L33.636,9.57 C33.6266666,9.0099972 33.4610016,8.51300217 33.139,8.079 C32.8169984,7.64499783 32.3340032,7.428 31.69,7.428 C31.0926637,7.428 30.6050019,7.64499783 30.227,8.079 C29.8489981,8.51300217 29.6273337,9.0099972 29.562,9.57 Z M39.768,8.828 C39.768,8.361331 39.6280014,7.99733464 39.348,7.736 C39.0679986,7.47466536 38.6760025,7.344 38.172,7.344 C37.6866642,7.344 37.3040014,7.47466536 37.024,7.736 C36.7439986,7.99733464 36.604,8.361331 36.604,8.828 C36.604,9.28533562 36.7439986,9.64466536 37.024,9.906 C37.3040014,10.1673346 37.6866642,10.298 38.172,10.298 C38.6760025,10.298 39.0679986,10.1673346 39.348,9.906 C39.6280014,9.64466536 39.768,9.28533562 39.768,8.828 Z M41.476,13.49 C41.476,14.2366704 41.1283368,14.7663318 40.433,15.079 C39.7376632,15.3916682 38.9466711,15.548 38.06,15.548 C37.2573293,15.548 36.5666696,15.4080014 35.988,15.128 C35.4093304,14.8479986 35.12,14.4280028 35.12,13.868 C35.12,13.4946648 35.2389988,13.1936678 35.477,12.965 C35.7150012,12.7363322 36.0253314,12.5800004 36.408,12.496 C36.1279986,12.4119996 35.9273339,12.2813342 35.806,12.104 C35.6846661,11.9266658 35.624,11.7260011 35.624,11.502 C35.624,11.2406654 35.7056659,11.0190009 35.869,10.837 C36.0323341,10.6549991 36.2399987,10.5033339 36.492,10.382 C36.2493321,10.2046658 36.060334,9.98300133 35.925,9.717 C35.789666,9.45099867 35.722,9.15000168 35.722,8.814 C35.722,8.17933016 35.9529977,7.67766851 36.415,7.309 C36.8770023,6.94033149 37.4626631,6.756 38.172,6.756 C38.564002,6.756 38.9233317,6.81433275 39.25,6.931 C39.5766683,7.04766725 39.8473323,7.21333226 40.062,7.428 C40.2206675,7.17599874 40.4306654,6.97533408 40.692,6.826 C40.9533346,6.67666592 41.2426651,6.602 41.56,6.602 L41.56,7.428 C41.3266655,7.428 41.0980011,7.45599972 40.874,7.512 C40.6499989,7.56800028 40.4633341,7.63799958 40.314,7.722 C40.4166672,7.87133408 40.4959997,8.0393324 40.552,8.226 C40.6080003,8.4126676 40.636,8.60866564 40.636,8.814 C40.636,9.44866984 40.402669,9.95033149 39.936,10.319 C39.469331,10.6876685 38.8813369,10.872 38.172,10.872 C37.9293321,10.872 37.6960011,10.8486669 37.472,10.802 C37.2479989,10.7553331 37.0426676,10.6900004 36.856,10.606 C36.7346661,10.6713337 36.6180006,10.7623328 36.506,10.879 C36.3939994,10.9956673 36.338,11.1379992 36.338,11.306 C36.338,11.4926676 36.3986661,11.6349995 36.52,11.733 C36.6413339,11.8310005 36.8466652,11.88 37.136,11.88 L39.488,11.88 C40.1320032,11.88 40.6243316,12.0316651 40.965,12.335 C41.3056684,12.6383348 41.476,13.023331 41.476,13.49 Z M35.988,13.658 C35.988,14.1060022 36.1816647,14.4303323 36.569,14.631 C36.9563353,14.8316677 37.4533303,14.932 38.06,14.932 C38.8160038,14.932 39.4366642,14.827001 39.922,14.617 C40.4073358,14.4069989 40.65,14.0406693 40.65,13.518 C40.65,13.2006651 40.5240013,12.974334 40.272,12.839 C40.0199987,12.703666 39.6933353,12.636 39.292,12.636 L37.374,12.636 C37.0006648,12.636 36.6763347,12.7083326 36.401,12.853 C36.1256653,12.9976674 35.988,13.265998 35.988,13.658 Z M42.372,5.314 L42.372,4.18 L43.282,4.18 L43.282,5.314 L42.372,5.314 Z M42.4,6.924 L43.254,6.924 L43.254,13 L42.4,13 L42.4,6.924 Z M50.618,9.962 C50.618,10.9046714 50.3263363,11.6746637 49.743,12.272 C49.1596638,12.8693363 48.4340043,13.168 47.566,13.168 C46.707329,13.168 45.9863363,12.8693363 45.403,12.272 C44.8196638,11.6746637 44.528,10.9046714 44.528,9.962 C44.528,9.01932862 44.8196638,8.24933632 45.403,7.652 C45.9863363,7.05466368 46.707329,6.756 47.566,6.756 C48.4340043,6.756 49.1596638,7.05466368 49.743,7.652 C50.3263363,8.24933632 50.618,9.01932862 50.618,9.962 Z M45.424,9.962 C45.424,10.699337 45.6129981,11.3059976 45.991,11.782 C46.3690019,12.2580024 46.8939966,12.496 47.566,12.496 C48.2473367,12.496 48.7769981,12.2580024 49.155,11.782 C49.5330019,11.3059976 49.722,10.699337 49.722,9.962 C49.722,9.22466298 49.5330019,8.61800238 49.155,8.142 C48.7769981,7.66599762 48.2473367,7.428 47.566,7.428 C46.8939966,7.428 46.3690019,7.66599762 45.991,8.142 C45.6129981,8.61800238 45.424,9.22466298 45.424,9.962 Z M52.746,9.36 L52.746,13 L51.892,13 L51.892,6.924 L52.746,6.924 L52.746,8.044 C52.8953341,7.6706648 53.1589981,7.36266788 53.537,7.12 C53.9150019,6.87733212 54.3326644,6.756 54.79,6.756 C55.5740039,6.756 56.1409982,6.98699769 56.491,7.449 C56.8410017,7.91100231 57.016,8.50599636 57.016,9.234 L57.016,13 L56.162,13 L56.162,9.206 C56.162,8.67399734 56.0243347,8.2446683 55.749,7.918 C55.4736653,7.5913317 55.0793359,7.428 54.566,7.428 C54.0899976,7.428 53.6676685,7.60299825 53.299,7.953 C52.9303315,8.30300175 52.746,8.77199706 52.746,9.36 Z M62.49,10.242 L62.49,9.864 L61.006,10.186 C60.4553306,10.3073339 60.0190016,10.4496658 59.697,10.613 C59.3749984,10.7763342 59.214,11.0586647 59.214,11.46 C59.214,11.7493348 59.3096657,11.9966656 59.501,12.202 C59.6923343,12.4073344 59.9886647,12.51 60.39,12.51 C60.9780029,12.51 61.474998,12.3000021 61.881,11.88 C62.287002,11.4599979 62.49,10.9140034 62.49,10.242 Z M63.302,9.052 L63.302,11.978 C63.302,12.1366675 63.3486662,12.2556663 63.442,12.335 C63.5353338,12.4143337 63.6566659,12.454 63.806,12.454 C63.8713337,12.454 63.9576661,12.4400001 64.065,12.412 C64.1723339,12.3839999 64.2679996,12.3466669 64.352,12.3 L64.352,12.762 C64.2586662,12.8646672 64.1536672,12.9509996 64.037,13.021 C63.9203328,13.0910004 63.7593344,13.126 63.554,13.126 C63.2553318,13.126 63.0056677,13.0070012 62.805,12.769 C62.6043323,12.5309988 62.4993334,12.2206686 62.49,11.838 C62.3313325,12.1926684 62.0443354,12.5029987 61.629,12.769 C61.2136646,13.0350013 60.7493359,13.168 60.236,13.168 C59.6759972,13.168 59.2210017,13.0186682 58.871,12.72 C58.5209983,12.4213318 58.346,12.0106693 58.346,11.488 C58.346,10.9186638 58.5769977,10.4940014 59.039,10.214 C59.5010023,9.9339986 60.1099962,9.71933408 60.866,9.57 L62.49,9.234 L62.49,8.926 C62.49,8.46866438 62.3593346,8.10466802 62.098,7.834 C61.8366654,7.56333198 61.4680024,7.428 60.992,7.428 C60.5066642,7.428 60.1216681,7.55633205 59.837,7.813 C59.5523319,8.06966795 59.3586672,8.39399804 59.256,8.786 L58.528,8.646 C58.6493339,8.10466396 58.9246645,7.65433513 59.354,7.295 C59.7833355,6.93566487 60.3246634,6.756 60.978,6.756 C61.7340038,6.756 62.3103313,6.95199804 62.707,7.344 C63.1036687,7.73600196 63.302,8.3053296 63.302,9.052 Z M65.318,4.18 L66.172,4.18 L66.172,13 L65.318,13 L65.318,4.18 Z M39.418,24.556 L39.418,28 L38.55,28 L38.55,19.18 L41.56,19.18 C42.6333387,19.18 43.4639971,19.4203309 44.052,19.901 C44.6400029,20.3816691 44.934,21.0373292 44.934,21.868 C44.934,22.6986708 44.6400029,23.3543309 44.052,23.835 C43.4639971,24.3156691 42.6333387,24.556 41.56,24.556 L39.418,24.556 Z M39.418,23.814 L41.56,23.814 C42.3906708,23.814 43.0159979,23.6436684 43.436,23.303 C43.8560021,22.9623316 44.066,22.4840031 44.066,21.868 C44.066,21.2519969 43.8560021,20.7736684 43.436,20.433 C43.0159979,20.0923316 42.3906708,19.922 41.56,19.922 L39.418,19.922 L39.418,23.814 Z M49.596,22.036 L49.498,22.778 C49.3206658,22.6846662 49.1666673,22.6216668 49.036,22.589 C48.9053327,22.5563332 48.7513342,22.54 48.574,22.54 C48.1353311,22.54 47.7596682,22.742998 47.447,23.149 C47.1343318,23.555002 46.978,24.0613303 46.978,24.668 L46.978,28 L46.124,28 L46.124,21.924 L46.978,21.924 L46.978,23.198 C47.0993339,22.8526649 47.3093318,22.5260015 47.608,22.218 C47.9066682,21.9099985 48.2799978,21.756 48.728,21.756 C48.9146676,21.756 49.0779993,21.7793331 49.218,21.826 C49.3580007,21.8726669 49.4839994,21.9426662 49.596,22.036 Z M55.91,24.962 C55.91,25.9046714 55.6183362,26.6746637 55.035,27.272 C54.4516637,27.8693363 53.7260043,28.168 52.858,28.168 C51.999329,28.168 51.2783362,27.8693363 50.695,27.272 C50.1116637,26.6746637 49.82,25.9046714 49.82,24.962 C49.82,24.0193286 50.1116637,23.2493363 50.695,22.652 C51.2783362,22.0546637 51.999329,21.756 52.858,21.756 C53.7260043,21.756 54.4516637,22.0546637 55.035,22.652 C55.6183362,23.2493363 55.91,24.0193286 55.91,24.962 Z M50.716,24.962 C50.716,25.699337 50.9049981,26.3059976 51.283,26.782 C51.6610019,27.2580024 52.1859966,27.496 52.858,27.496 C53.5393367,27.496 54.0689981,27.2580024 54.447,26.782 C54.8250019,26.3059976 55.014,25.699337 55.014,24.962 C55.014,24.224663 54.8250019,23.6180024 54.447,23.142 C54.0689981,22.6659976 53.5393367,22.428 52.858,22.428 C52.1859966,22.428 51.6610019,22.6659976 51.283,23.142 C50.9049981,23.6180024 50.716,24.224663 50.716,24.962 Z M61.86,25.172 L61.86,24.752 C61.86,24.0239964 61.6500021,23.4593353 61.23,23.058 C60.8099979,22.6566647 60.3013363,22.456 59.704,22.456 C59.0599968,22.456 58.5606684,22.6823311 58.206,23.135 C57.8513316,23.5876689 57.674,24.1966628 57.674,24.962 C57.674,25.7273372 57.8513316,26.3363311 58.206,26.789 C58.5606684,27.2416689 59.0599968,27.468 59.704,27.468 C60.3013363,27.468 60.8099979,27.2673353 61.23,26.866 C61.6500021,26.4646647 61.86,25.9000036 61.86,25.172 Z M61.832,28 L61.832,26.67 C61.7013327,27.0526686 61.4423353,27.3979985 61.055,27.706 C60.6676647,28.0140015 60.1800029,28.168 59.592,28.168 C58.6959955,28.168 58.0030024,27.8576698 57.513,27.237 C57.0229975,26.6163302 56.778,25.8580045 56.778,24.962 C56.778,24.0659955 57.0229975,23.3076698 57.513,22.687 C58.0030024,22.0663302 58.6959955,21.756 59.592,21.756 C60.1800029,21.756 60.6676647,21.9123318 61.055,22.225 C61.4423353,22.5376682 61.7013327,22.8853314 61.832,23.268 L61.832,19.18 L62.686,19.18 L62.686,28 L61.832,28 Z M68.496,25.564 L68.496,21.924 L69.35,21.924 L69.35,28 L68.496,28 L68.496,26.88 C68.3466659,27.2533352 68.0876685,27.5613321 67.719,27.804 C67.3503315,28.0466679 66.9373356,28.168 66.48,28.168 C65.6959961,28.168 65.1360017,27.9370023 64.8,27.475 C64.4639983,27.0129977 64.296,26.4180036 64.296,25.69 L64.296,21.924 L65.15,21.924 L65.15,25.718 C65.15,26.2500027 65.2806654,26.6793317 65.542,27.006 C65.8033346,27.3326683 66.1906641,27.496 66.704,27.496 C67.1800024,27.496 67.5976649,27.3210018 67.957,26.971 C68.3163351,26.6209982 68.496,26.1520029 68.496,25.564 Z M70.624,24.962 C70.624,24.0006619 70.9109971,23.2260029 71.485,22.638 C72.0590029,22.0499971 72.7939955,21.756 73.69,21.756 C74.5673377,21.756 75.2439976,22.0173307 75.72,22.54 C76.1960024,23.0626693 76.4619997,23.6879964 76.518,24.416 L75.734,24.472 C75.6966665,23.8933304 75.5006684,23.4150019 75.146,23.037 C74.7913316,22.6589981 74.2966698,22.47 73.662,22.47 C73.0273302,22.47 72.5116687,22.6986644 72.115,23.156 C71.7183313,23.6133356 71.52,24.2153296 71.52,24.962 C71.52,25.7086704 71.7183313,26.3106644 72.115,26.768 C72.5116687,27.2253356 73.0273302,27.454 73.662,27.454 C74.2966698,27.454 74.7913316,27.2603353 75.146,26.873 C75.5006684,26.4856647 75.6966665,26.0026696 75.734,25.424 L76.518,25.508 C76.4619997,26.2360036 76.1960024,26.8613307 75.72,27.384 C75.2439976,27.9066693 74.5673377,28.168 73.69,28.168 C72.7939955,28.168 72.0590029,27.8740029 71.485,27.286 C70.9109971,26.6979971 70.624,25.9233381 70.624,24.962 Z M82.524,25.83 L83.252,25.928 C83.1026659,26.6186701 82.7853358,27.1646647 82.3,27.566 C81.8146642,27.9673353 81.203337,28.168 80.466,28.168 C79.5886623,28.168 78.8560029,27.8810029 78.268,27.307 C77.6799971,26.7329971 77.386,25.979338 77.386,25.046 C77.386,24.0939952 77.6753304,23.3076698 78.254,22.687 C78.8326696,22.0663302 79.551329,21.756 80.41,21.756 C81.3526714,21.756 82.0643309,22.0546637 82.545,22.652 C83.0256691,23.2493363 83.266,23.9586626 83.266,24.78 L83.266,25.172 L78.268,25.172 C78.2960001,25.8440034 78.5199979,26.3946645 78.94,26.824 C79.3600021,27.2533355 79.8686637,27.468 80.466,27.468 C81.0260028,27.468 81.4786649,27.3280014 81.824,27.048 C82.1693351,26.7679986 82.4026661,26.3620027 82.524,25.83 Z M78.282,24.57 L82.356,24.57 C82.3466666,24.0099972 82.1810016,23.5130022 81.859,23.079 C81.5369984,22.6449978 81.0540032,22.428 80.41,22.428 C79.8126637,22.428 79.3250019,22.6449978 78.947,23.079 C78.5689981,23.5130022 78.3473337,24.0099972 78.282,24.57 Z M89.216,25.172 L89.216,24.752 C89.216,24.0239964 89.0060021,23.4593353 88.586,23.058 C88.1659979,22.6566647 87.6573363,22.456 87.06,22.456 C86.4159968,22.456 85.9166684,22.6823311 85.562,23.135 C85.2073316,23.5876689 85.03,24.1966628 85.03,24.962 C85.03,25.7273372 85.2073316,26.3363311 85.562,26.789 C85.9166684,27.2416689 86.4159968,27.468 87.06,27.468 C87.6573363,27.468 88.1659979,27.2673353 88.586,26.866 C89.0060021,26.4646647 89.216,25.9000036 89.216,25.172 Z M89.188,28 L89.188,26.67 C89.0573327,27.0526686 88.7983353,27.3979985 88.411,27.706 C88.0236647,28.0140015 87.5360029,28.168 86.948,28.168 C86.0519955,28.168 85.3590024,27.8576698 84.869,27.237 C84.3789975,26.6163302 84.134,25.8580045 84.134,24.962 C84.134,24.0659955 84.3789975,23.3076698 84.869,22.687 C85.3590024,22.0663302 86.0519955,21.756 86.948,21.756 C87.5360029,21.756 88.0236647,21.9123318 88.411,22.225 C88.7983353,22.5376682 89.0573327,22.8853314 89.188,23.268 L89.188,19.18 L90.042,19.18 L90.042,28 L89.188,28 Z M95.18,28 L94.312,28 L94.312,19.18 L100.15,19.18 L100.15,19.922 L95.18,19.922 L95.18,23.198 L99.128,23.198 L99.128,23.94 L95.18,23.94 L95.18,28 Z M106.324,24.962 C106.324,25.9046714 106.032336,26.6746637 105.449,27.272 C104.865664,27.8693363 104.140004,28.168 103.272,28.168 C102.413329,28.168 101.692336,27.8693363 101.109,27.272 C100.525664,26.6746637 100.234,25.9046714 100.234,24.962 C100.234,24.0193286 100.525664,23.2493363 101.109,22.652 C101.692336,22.0546637 102.413329,21.756 103.272,21.756 C104.140004,21.756 104.865664,22.0546637 105.449,22.652 C106.032336,23.2493363 106.324,24.0193286 106.324,24.962 Z M101.13,24.962 C101.13,25.699337 101.318998,26.3059976 101.697,26.782 C102.075002,27.2580024 102.599997,27.496 103.272,27.496 C103.953337,27.496 104.482998,27.2580024 104.861,26.782 C105.239002,26.3059976 105.428,25.699337 105.428,24.962 C105.428,24.224663 105.239002,23.6180024 104.861,23.142 C104.482998,22.6659976 103.953337,22.428 103.272,22.428 C102.599997,22.428 102.075002,22.6659976 101.697,23.142 C101.318998,23.6180024 101.13,24.224663 101.13,24.962 Z M113.282,24.962 C113.282,25.9046714 112.990336,26.6746637 112.407,27.272 C111.823664,27.8693363 111.098004,28.168 110.23,28.168 C109.371329,28.168 108.650336,27.8693363 108.067,27.272 C107.483664,26.6746637 107.192,25.9046714 107.192,24.962 C107.192,24.0193286 107.483664,23.2493363 108.067,22.652 C108.650336,22.0546637 109.371329,21.756 110.23,21.756 C111.098004,21.756 111.823664,22.0546637 112.407,22.652 C112.990336,23.2493363 113.282,24.0193286 113.282,24.962 Z M108.088,24.962 C108.088,25.699337 108.276998,26.3059976 108.655,26.782 C109.033002,27.2580024 109.557997,27.496 110.23,27.496 C110.911337,27.496 111.440998,27.2580024 111.819,26.782 C112.197002,26.3059976 112.386,25.699337 112.386,24.962 C112.386,24.224663 112.197002,23.6180024 111.819,23.142 C111.440998,22.6659976 110.911337,22.428 110.23,22.428 C109.557997,22.428 109.033002,22.6659976 108.655,23.142 C108.276998,23.6180024 108.088,24.224663 108.088,24.962 Z M119.232,25.172 L119.232,24.752 C119.232,24.0239964 119.022002,23.4593353 118.602,23.058 C118.181998,22.6566647 117.673336,22.456 117.076,22.456 C116.431997,22.456 115.932668,22.6823311 115.578,23.135 C115.223332,23.5876689 115.046,24.1966628 115.046,24.962 C115.046,25.7273372 115.223332,26.3363311 115.578,26.789 C115.932668,27.2416689 116.431997,27.468 117.076,27.468 C117.673336,27.468 118.181998,27.2673353 118.602,26.866 C119.022002,26.4646647 119.232,25.9000036 119.232,25.172 Z M119.204,28 L119.204,26.67 C119.073333,27.0526686 118.814335,27.3979985 118.427,27.706 C118.039665,28.0140015 117.552003,28.168 116.964,28.168 C116.067996,28.168 115.375002,27.8576698 114.885,27.237 C114.394998,26.6163302 114.15,25.8580045 114.15,24.962 C114.15,24.0659955 114.394998,23.3076698 114.885,22.687 C115.375002,22.0663302 116.067996,21.756 116.964,21.756 C117.552003,21.756 118.039665,21.9123318 118.427,22.225 C118.814335,22.5376682 119.073333,22.8853314 119.204,23.268 L119.204,19.18 L120.058,19.18 L120.058,28 L119.204,28 Z" id="RegionalProducedFood" fill="#FFFFFF" fill-rule="nonzero"></path>
            </g>
        </g>
    </g>
</svg>