<?xml version="1.0" encoding="UTF-8"?>
<svg width="25px" height="40px" viewBox="0 0 25 40" version="1.1" xmlns="http://www.w3.org/2000/svg" xmlns:xlink="http://www.w3.org/1999/xlink">
    <!-- Generator: Sketch 53.2 (72643) - https://sketchapp.com -->
    <title>Group</title>
    <desc>Created with Sketch.</desc>
    <g id="UI" stroke="none" stroke-width="1" fill="none" fill-rule="evenodd">
        <g id="sc-welcome" transform="translate(-46.000000, -21.000000)">
            <g id="Group-3" transform="translate(41.000000, 21.000000)">
                <g id="Group" transform="translate(5.000000, 0.000000)">
                    <path d="M11.1897992,36.2458346 C7.09744981,36.2458346 3.76920781,32.9626203 3.76920781,28.9267869 C3.76920781,26.807025 4.69313619,24.9013107 6.15718937,23.5629377 L2.69362453,21.7630965 C1.01842105,23.6941282 -1.42108547e-13,26.193652 -1.42108547e-13,28.9267869 C-1.42108547e-13,35.0133346 5.01977754,39.962898 11.1897992,39.962898 C16.3553988,39.962898 20.7020619,36.4875012 21.9841291,31.7853584 L18.5217309,29.9878187 C17.9991047,33.521906 14.9146772,36.2458346 11.1897992,36.2458346" id="Fill-1" fill="#F21833"></path>
                    <path d="M11.180928,18.307619 C7.09182305,18.307619 3.76621973,15.0331136 3.76621973,11.0079853 C3.76621973,6.9817094 7.09182305,3.70720391 11.180928,3.70720391 C15.2688673,3.70720391 18.593305,6.9817094 18.593305,11.0079853 C18.593305,15.0331136 15.2688673,18.307619 11.180928,18.307619 M24.9286201,4.48537241 L24.9286201,0.972136752 C22.7360299,1.27169719 20.8989634,2.23235653 19.4255801,3.60046398 C17.3798619,1.39450549 14.4459175,1.42108547e-14 11.180928,1.42108547e-14 C5.01579798,1.42108547e-14 1.85429556e-07,4.93873016 1.85429556e-07,11.0079853 C1.85429556e-07,17.0783883 5.01579798,22.014823 11.180928,22.014823 C11.8383554,22.014823 12.4806293,21.948254 13.1077497,21.8403663 C13.2044988,21.8667643 13.3059104,21.8782418 13.4003282,21.908083 C15.5661084,22.5806593 17.302929,24.2104518 18.1060627,26.289011 L22.3362115,28.4077411 C22.1870082,24.923199 20.3814142,21.8610256 17.6829313,19.9454457 C20.5096358,17.9460806 22.3606902,14.6887912 22.3606902,11.0079853 C22.3606902,9.49985348 22.0494613,8.06288156 21.4899486,6.75445665 C22.4877462,5.42881563 23.1964622,4.68278388 24.9286201,4.48537241" id="Fill-4" fill="#FFFFFF"></path>
                </g>
            </g>
        </g>
    </g>
</svg>