<?xml version="1.0" encoding="UTF-8"?>
<svg width="89px" height="24px" viewBox="0 0 89 24" version="1.1" xmlns="http://www.w3.org/2000/svg" xmlns:xlink="http://www.w3.org/1999/xlink">
    <!-- Generator: Sketch 53.2 (72643) - https://sketchapp.com -->
    <title>Group 9</title>
    <desc>Created with Sketch.</desc>
    <g id="UI" stroke="none" stroke-width="1" fill="none" fill-rule="evenodd">
        <g id="Group-9" fill="#191919">
            <g id="Group-5">
                <circle id="Oval" cx="10" cy="6" r="6"></circle>
                <path d="M0,24 C0,18.4771525 4.4771525,14 10,14 C15.5228475,14 20,18.4771525 20,24 L-1.77635684e-15,24 Z" id="Combined-Shape-Copy"></path>
            </g>
            <g id="Group-6" transform="translate(22.000000, 0.000000)">
                <circle id="Oval-Copy" cx="10" cy="6" r="6"></circle>
                <path d="M0,24 C0,18.4771525 4.4771525,14 10,14 C15.5228475,14 20,18.4771525 20,24 L-1.77635684e-15,24 Z" id="Combined-Shape-Copy-2"></path>
            </g>
            <g id="Group-7" transform="translate(45.000000, 0.000000)">
                <circle id="Oval-Copy-3" cx="10" cy="6" r="6"></circle>
                <path d="M0,24 C0,18.4771525 4.4771525,14 10,14 C15.5228475,14 20,18.4771525 20,24 L-1.77635684e-15,24 Z" id="Combined-Shape-Copy-3"></path>
            </g>
            <g id="Group-8" transform="translate(69.000000, 0.000000)">
                <circle id="Oval-Copy-4" cx="10" cy="6" r="6"></circle>
                <path d="M0,24 C0,18.4771525 4.4771525,14 10,14 C15.5228475,14 20,18.4771525 20,24 L-1.77635684e-15,24 Z" id="Combined-Shape-Copy-4"></path>
            </g>
        </g>
    </g>
</svg>