<?xml version="1.0" encoding="UTF-8"?>
<svg width="37px" height="40px" viewBox="0 0 37 40" version="1.1" xmlns="http://www.w3.org/2000/svg" xmlns:xlink="http://www.w3.org/1999/xlink">
    <!-- Generator: Sketch 53.2 (72643) - https://sketchapp.com -->
    <title>plan</title>
    <desc>Created with Sketch.</desc>
    <g id="UI" stroke="none" stroke-width="1" fill="none" fill-rule="evenodd">
        <g id="plan" fill-rule="nonzero">
            <polygon id="Path" fill="#191919" points="15 9 15 5 1 5 1 19 4 19 4 33 30 33 30 19 35 19 35 9"></polygon>
            <polygon id="Path" fill="#FFFFFF" points="8 20 4 20 4 18 6 18 6 14 8 14"></polygon>
            <rect id="Rectangle" fill="#FFFFFF" x="14" y="9" width="2" height="3"></rect>
            <polygon id="Path" fill="#FFFFFF" points="20 14 20 18 16 18 16 14 14 14 14 18 12 18 12 20 22 20 22 14"></polygon>
            <rect id="Rectangle" fill="#FFFFFF" x="26" y="18" width="4" height="2"></rect>
            <polygon id="Path" fill="#191919" points="20 40 18 40 18 36 33 36 33 22 37 22 37 24 35 24 35 38 20 38"></polygon>
            <path d="M17,24 L7,24 L7,34 L21,34 L21,24 L17,24 Z M11,32 L9,32 L9,26 L11,26 L11,32 Z M15,32 L13,32 L13,26 L15,26 L15,32 Z M19,32 L17,32 L17,26 L19,26 L19,32 Z" id="Shape" fill="#FFFFFF"></path>
            <polygon id="Path" fill="#191919" points="28 6 18 6 18 2 0 2 0 0 20 0 20 4 28 4"></polygon>
            <rect id="Rectangle" fill="#191919" x="30" y="4" width="2" height="2"></rect>
        </g>
    </g>
</svg>