<?xml version="1.0" encoding="UTF-8"?>
<svg width="111px" height="86px" viewBox="0 0 111 86" version="1.1" xmlns="http://www.w3.org/2000/svg" xmlns:xlink="http://www.w3.org/1999/xlink">
    <!-- Generator: Sketch 53.2 (72643) - https://sketchapp.com -->
    <title>Group 11</title>
    <desc>Created with Sketch.</desc>
    <g id="UI" stroke="none" stroke-width="1" fill="none" fill-rule="evenodd">
        <g id="Group-11" fill="#FFFFFF" fill-rule="nonzero">
            <rect id="Rectangle" x="0" y="79.0820896" width="111" height="6.91791045"></rect>
            <g id="Group-12" transform="translate(0.000000, 32.962687)">
                <rect id="Rectangle" x="22.9655172" y="33.0522388" width="6.12413793" height="6.91791045"></rect>
                <path d="M29.8551724,12.813851 C29.9485811,13.025257 30.0407044,13.237532 30.1300426,13.4513279 C31.7092073,17.2377323 32.5578128,21.2418434 32.6565775,25.3656716 C43.8097091,22.4720392 52.0551724,12.2126586 52.0551724,0 C42.6131775,0 34.3565737,5.14174892 29.8551724,12.813851 Z" id="Path"></path>
                <path d="M26.0275862,26.9029851 C26.0275862,12.0449464 14.3745715,0 0,0 C0,14.8580386 11.6530147,26.9029851 26.0275862,26.9029851 Z" id="Path"></path>
            </g>
            <g id="Group-12-Copy" transform="translate(28.324138, 0.000000)">
                <path d="M29.8551724,12.813851 C29.9485811,13.025257 30.0407044,13.237532 30.1300426,13.4513279 C31.7092073,17.2377323 32.5578128,21.2418434 32.6565775,25.3656716 C43.8097091,22.4720392 52.0551724,12.2126586 52.0551724,0 C42.6131775,0 34.3565737,5.14174892 29.8551724,12.813851 Z" id="Path"></path>
                <path d="M26.0275862,26.9029851 C26.0275862,12.0449464 14.3745715,0 0,0 C0,14.8580386 11.6530147,26.9029851 26.0275862,26.9029851 Z" id="Path"></path>
            </g>
            <rect id="Rectangle" x="81.9103448" y="66.0149254" width="6.12413793" height="6.91791045"></rect>
            <path d="M88.8,45.7765376 C88.8934087,45.9879435 88.985532,46.2002186 89.074656,46.4140145 C90.6538206,50.2004188 91.5024261,54.20453 91.6011909,58.3283582 C102.754537,55.4347258 111,45.1753451 111,32.9626866 C101.558005,32.9626866 93.3014012,38.1044355 88.8,45.7765376 Z" id="Path"></path>
            <path d="M84.9448276,57.9626866 C84.9448276,44.1556326 73.3041637,32.9626866 58.9448276,32.9626866 C58.9448276,46.7697405 70.5854915,57.9626866 84.9448276,57.9626866 Z" id="Path"></path>
        </g>
    </g>
</svg>