<?xml version="1.0" encoding="UTF-8"?>
<svg width="40px" height="40px" viewBox="0 0 40 40" version="1.1" xmlns="http://www.w3.org/2000/svg" xmlns:xlink="http://www.w3.org/1999/xlink">
    <!-- Generator: Sketch 53.2 (72643) - https://sketchapp.com -->
    <title>stock</title>
    <desc>Created with Sketch.</desc>
    <g id="UI" stroke="none" stroke-width="1" fill="none" fill-rule="evenodd">
        <g id="stock" fill="#191919" fill-rule="nonzero">
            <path d="M38,0 C36.8973437,0 36,0.89734375 36,2 L36,9.33335938 L34,9.33335938 L34,4.18 C34,3.3453125 33.3207031,2.66664062 32.4866406,2.66664062 L27.5132812,2.66664062 C26.6792969,2.66664062 25.9999219,3.3453125 25.9999219,4.18 L25.9999219,9.33335937 L23.9999219,9.33335937 L23.9999219,4.18 C23.9999219,3.3453125 23.320625,2.66664062 22.4865625,2.66664062 L17.5132031,2.66664062 C16.6792187,2.66664062 15.9998437,3.3453125 15.9998437,4.18 L15.9998437,9.33335937 L13.9998437,9.33335937 L13.9998437,4.18 C13.9998437,3.3453125 13.3205469,2.66664062 12.4864844,2.66664062 L7.51335938,2.66664062 C6.679375,2.66664062 6,3.3453125 6,4.18 L6,9.33335937 L4,9.33335937 L4,2 C4,0.89734375 3.10265625,0 2,0 C0.89734375,0 0,0.89734375 0,2 L0,40 L4,40 L4,36 L6,36 L14,36 L16,36 L24,36 L26,36 L34,36 L36,36 L36,40 L40,40 L40,2 C40,0.89734375 39.1026563,0 38,0 Z M36,34.6666406 L34,34.6666406 L34,29.5132812 C34,28.6785937 33.3207031,27.9999219 32.4866406,27.9999219 L27.5132813,27.9999219 C26.6792969,27.9999219 25.9999219,28.6785938 25.9999219,29.5132812 L25.9999219,34.6666406 L23.9999219,34.6666406 L23.9999219,29.5132812 C23.9999219,28.6785937 23.320625,27.9999219 22.4865625,27.9999219 L17.5132031,27.9999219 C16.6792188,27.9999219 15.9998438,28.6785938 15.9998438,29.5132812 L15.9998438,34.6666406 L13.9998438,34.6666406 L13.9998438,29.5132812 C13.9998438,28.6785937 13.3205469,27.9999219 12.4864844,27.9999219 L7.51335938,27.9999219 C6.679375,27.9999219 6,28.6785938 6,29.5132812 L6,34.6666406 L4,34.6666406 L4,23.3333594 L6,23.3333594 L14,23.3333594 L16,23.3333594 L24,23.3333594 L26,23.3333594 L34,23.3333594 L36,23.3333594 L36,34.6666406 Z M36,22 L34,22 L34,16.8466406 C34,16.0119531 33.3207031,15.3332813 32.4866406,15.3332813 L27.5132813,15.3332813 C26.6792969,15.3332813 25.9999219,16.0119531 25.9999219,16.8466406 L25.9999219,22 L23.9999219,22 L23.9999219,16.8466406 C23.9999219,16.0119531 23.320625,15.3332813 22.4865625,15.3332813 L17.5132031,15.3332813 C16.6792188,15.3332813 15.9998438,16.0119531 15.9998438,16.8466406 L15.9998438,22 L13.9998438,22 L13.9998438,16.8466406 C13.9998438,16.0119531 13.3205469,15.3332813 12.4864844,15.3332813 L7.51335938,15.3332813 C6.679375,15.3332813 6,16.0119531 6,16.8466406 L6,22 L4,22 L4,10.6666406 L6,10.6666406 L14,10.6666406 L16,10.6666406 L24,10.6666406 L26,10.6666406 L34,10.6666406 L36,10.6666406 L36,22 Z" id="Shape"></path>
        </g>
    </g>
</svg>